<svg width="719" height="900" viewBox="0 0 719 900" fill="none" xmlns="http://www.w3.org/2000/svg">
<rect y="-1" width="719" height="901" fill="#F2F9FF"/>
<g clip-path="url(#clip0_305_0)">
<path d="M524.749 727.488C516.76 720.268 511.908 708.863 513.18 697.76C514.453 686.657 522.335 676.45 532.559 674.092C542.783 671.734 554.438 678.261 557.543 688.943C559.252 668.349 561.222 646.892 571.459 629.354C580.729 613.474 596.784 602.112 614.184 600.079C631.584 598.046 649.905 605.724 660.757 620.412C671.608 635.101 674.266 656.455 666.665 673.319C661.066 685.742 650.751 694.987 639.943 702.508C605.019 726.608 563.133 736.409 521.99 730.106L524.749 727.488Z" fill="#F2F2F2"/>
<path d="M643.55 606.149C629.192 618.656 616.021 632.645 604.226 647.912C585.767 671.723 570.83 698.42 559.935 727.073C559.137 729.163 562.311 730.073 563.1 728.006C580.926 681.44 609.384 640.397 645.87 608.631C647.509 607.204 645.175 604.734 643.55 606.149Z" fill="white"/>
<path d="M247.876 725.526C258.848 715.61 265.513 699.945 263.766 684.695C262.018 669.445 251.192 655.425 237.149 652.187C223.106 648.948 207.098 657.913 202.833 672.584C200.486 644.298 197.781 614.828 183.72 590.74C170.988 568.929 148.936 553.322 125.037 550.53C101.137 547.738 75.9746 558.283 61.0695 578.458C46.1643 598.633 42.5149 627.962 52.954 651.125C60.6442 668.188 74.8122 680.886 89.6567 691.217C137.016 724.176 195.765 737.921 251.665 729.123" fill="#F2F2F2"/>
<path d="M84.703 558.867C104.423 576.046 122.514 595.259 138.714 616.229C154.917 637.177 169.182 659.756 181.308 683.65C188.086 697.053 194.175 710.842 199.548 724.956C200.643 727.827 196.284 729.076 195.201 726.237C185.685 701.356 173.912 677.531 160.05 655.106C146.256 632.762 130.467 611.902 112.907 592.819C102.974 582.03 92.4947 571.834 81.5156 562.276C79.2652 560.317 82.4712 556.924 84.703 558.867Z" fill="white"/>
<path d="M494.917 731.127H233.124V443.846C233.124 382.725 279.617 333 336.765 333H391.276C448.424 333 494.917 382.725 494.917 443.846V731.127Z" fill="#F2F2F2"/>
<path d="M440.407 731.127H233.124V443.846C233.067 420.426 240.001 397.598 252.917 378.685C253.393 377.991 253.868 377.306 254.358 376.629C260.605 367.865 268.04 360.148 276.416 353.73C276.889 353.362 277.364 353 277.846 352.638C284.855 347.451 292.437 343.21 300.419 340.013C300.893 339.82 301.376 339.628 301.858 339.443C309.078 336.688 316.561 334.8 324.171 333.816C324.642 333.747 325.127 333.693 325.611 333.639C333.027 332.791 340.506 332.791 347.921 333.639C348.404 333.693 348.889 333.747 349.366 333.817C356.974 334.801 364.455 336.688 371.672 339.443C372.155 339.628 372.638 339.82 373.113 340.013C380.997 343.17 388.49 347.348 395.424 352.452C395.906 352.806 396.388 353.168 396.863 353.53C401.558 357.114 405.968 361.108 410.048 365.469C413.32 368.967 416.369 372.696 419.175 376.631C419.663 377.306 420.138 377.991 420.613 378.684C433.53 397.597 440.464 420.426 440.407 443.846V731.127Z" fill="#CCCCCC"/>
<path d="M423.552 602.637C429.89 602.637 435.028 597.142 435.028 590.363C435.028 583.585 429.89 578.089 423.552 578.089C417.214 578.089 412.076 583.585 412.076 590.363C412.076 597.142 417.214 602.637 423.552 602.637Z" fill="#073A93"/>
<path d="M473.471 722.522H464.678L460.494 686.247L473.473 686.248L473.471 722.522Z" fill="#FFB8B8"/>
<path d="M458.397 719.835H475.355V731.254H447.719C447.719 729.755 447.995 728.27 448.532 726.884C449.068 725.499 449.855 724.24 450.846 723.179C451.838 722.119 453.015 721.278 454.31 720.704C455.606 720.13 456.994 719.835 458.397 719.835Z" fill="#2F2E41"/>
<path d="M517.223 722.522H508.429L504.246 686.247L517.224 686.248L517.223 722.522Z" fill="#FFB8B8"/>
<path d="M502.148 719.835H519.107V731.254H491.471C491.471 729.755 491.747 728.27 492.284 726.884C492.82 725.499 493.607 724.24 494.598 723.179C495.59 722.119 496.767 721.278 498.062 720.704C499.358 720.13 500.746 719.835 502.148 719.835Z" fill="#2F2E41"/>
<path d="M429.36 592.795C428.727 591.798 428.307 590.665 428.128 589.475C427.949 588.286 428.016 587.069 428.324 585.91C428.633 584.752 429.175 583.679 429.913 582.769C430.651 581.859 431.566 581.132 432.595 580.641L462.486 492.527L477.195 501.112L443.065 585.317C443.722 587.22 443.703 589.314 443.012 591.203C442.322 593.093 441.007 594.645 439.318 595.567C437.628 596.488 435.682 596.715 433.846 596.204C432.011 595.693 430.415 594.48 429.36 592.795Z" fill="#FFB8B8"/>
<path d="M512.731 609.352C511.754 608.753 510.911 607.931 510.263 606.946C509.614 605.961 509.176 604.836 508.978 603.65C508.78 602.464 508.828 601.246 509.118 600.082C509.408 598.918 509.933 597.836 510.656 596.912L501.396 503.702L518.135 504.52L521.983 596.204C523.353 597.606 524.195 599.497 524.349 601.519C524.503 603.541 523.958 605.553 522.817 607.173C521.677 608.794 520.02 609.911 518.161 610.312C516.302 610.714 514.37 610.372 512.731 609.352Z" fill="#FFB8B8"/>
<path d="M486.028 476.206C495.757 476.206 503.644 467.77 503.644 457.365C503.644 446.959 495.757 438.524 486.028 438.524C476.298 438.524 468.411 446.959 468.411 457.365C468.411 467.77 476.298 476.206 486.028 476.206Z" fill="#FFB8B8"/>
<path d="M512.618 588.153H459.509L459.573 587.711C459.668 587.05 469.038 521.403 462.128 499.927C461.434 497.816 461.495 495.506 462.299 493.44C463.102 491.375 464.592 489.701 466.481 488.74H466.481C476.359 483.765 495.319 477.639 511.323 492.505C513.678 494.729 515.517 497.508 516.694 500.623C517.872 503.738 518.356 507.103 518.108 510.453L512.618 588.153Z" fill="#073A93"/>
<path d="M469.709 531.105L445.799 525.917L457.007 497.511C457.677 494.76 459.341 492.405 461.633 490.964C463.924 489.523 466.657 489.113 469.231 489.824C471.805 490.534 474.01 492.308 475.363 494.755C476.716 497.203 477.106 500.124 476.448 502.879L469.709 531.105Z" fill="#073A93"/>
<path d="M500.333 540.738L498.895 505.496C497.805 498.871 501.351 492.608 506.805 491.585C512.259 490.565 517.586 495.16 518.681 501.833L524.084 534.763L500.333 540.738Z" fill="#073A93"/>
<path d="M510.852 583.934C519.397 618.742 520.329 662.999 518.024 711.273L506.548 709.739L485.748 617.686L474.272 711.273L461.362 710.506C457.505 659.854 453.75 616.371 459.927 587.769L510.852 583.934Z" fill="#2F2E41"/>
<path d="M497.635 471.925C494.349 475.67 488.245 473.66 487.817 468.545C487.784 468.148 487.786 467.748 487.824 467.351C488.045 465.086 489.269 463.029 488.976 460.636C488.91 460.041 488.702 459.474 488.374 458.988C485.755 455.237 479.607 460.666 477.136 457.27C475.62 455.188 477.402 451.91 476.239 449.583C474.704 446.512 470.157 448.027 467.306 446.345C464.134 444.474 464.324 439.269 466.412 436.103C468.959 432.241 473.424 430.181 477.833 429.884C482.242 429.587 486.621 430.862 490.738 432.578C495.415 434.527 500.053 437.221 502.931 441.62C506.432 446.969 506.768 454.16 505.018 460.415C503.953 464.22 500.319 468.868 497.635 471.925Z" fill="#2F2E41"/>
<path d="M649.47 731.62H119.935C119.708 731.62 119.492 731.523 119.332 731.352C119.173 731.181 119.083 730.949 119.083 730.707C119.083 730.465 119.173 730.233 119.332 730.062C119.492 729.891 119.708 729.794 119.935 729.793H649.47C649.696 729.794 649.912 729.891 650.072 730.062C650.231 730.233 650.321 730.465 650.321 730.707C650.321 730.949 650.231 731.181 650.072 731.352C649.912 731.523 649.696 731.62 649.47 731.62Z" fill="#3F3D56"/>
<path d="M383.386 647.896H290.145C288.917 647.903 287.736 647.389 286.862 646.466C285.988 645.544 285.492 644.288 285.483 642.975V420.385C285.492 419.071 285.988 417.816 286.862 416.893C287.736 415.971 288.917 415.457 290.145 415.464H383.386C384.614 415.457 385.795 415.971 386.669 416.893C387.543 417.816 388.039 419.071 388.048 420.385V642.975C388.039 644.288 387.543 645.544 386.669 646.466C385.795 647.389 384.614 647.903 383.386 647.896Z" fill="white"/>
<path d="M388.048 487.487H285.483V489.021H388.048V487.487Z" fill="#CCCCCC"/>
<path d="M388.407 575.021H285.841V576.555H388.407V575.021Z" fill="#CCCCCC"/>
<path d="M319.193 415.464H317.759V648.663H319.193V415.464Z" fill="#CCCCCC"/>
<path d="M355.055 415.464H353.621V648.663H355.055V415.464Z" fill="#CCCCCC"/>
</g>
<defs>
<clipPath id="clip0_305_0">
<rect width="624" height="399" fill="white" transform="translate(47 333)"/>
</clipPath>
</defs>
</svg>
